<mxfile host="app.diagrams.net" modified="2023-05-10T06:49:51.199Z" agent="Mozilla/5.0 (Windows NT 10.0; Win64; x64) AppleWebKit/537.36 (KHTML, like Gecko) Chrome/112.0.0.0 Safari/537.36" etag="PT2bPqy1w95laegp5fk5" version="21.2.9" type="device">
  <diagram name="Страница 1" id="lrOWcWU3krB4Q89E0xKn">
    <mxGraphModel dx="1674" dy="1965" grid="1" gridSize="10" guides="1" tooltips="1" connect="1" arrows="1" fold="1" page="1" pageScale="1" pageWidth="827" pageHeight="1169" math="0" shadow="0">
      <root>
        <mxCell id="0" />
        <mxCell id="1" parent="0" />
        <mxCell id="zO2Dq_rvEtgFNvUAzTZn-33" value="ex" style="edgeStyle=orthogonalEdgeStyle;rounded=0;orthogonalLoop=1;jettySize=auto;html=1;dashed=1;startArrow=classic;startFill=1;endArrow=none;endFill=0;" parent="1" source="zO2Dq_rvEtgFNvUAzTZn-1" target="zO2Dq_rvEtgFNvUAzTZn-34" edge="1">
          <mxGeometry relative="1" as="geometry">
            <mxPoint x="605" y="260" as="targetPoint" />
            <Array as="points">
              <mxPoint x="630" y="180" />
              <mxPoint x="730" y="180" />
            </Array>
          </mxGeometry>
        </mxCell>
        <mxCell id="zO2Dq_rvEtgFNvUAzTZn-1" value="Главная страница" style="ellipse;whiteSpace=wrap;html=1;" parent="1" vertex="1">
          <mxGeometry x="560" y="90" width="90" height="70" as="geometry" />
        </mxCell>
        <mxCell id="zO2Dq_rvEtgFNvUAzTZn-5" style="edgeStyle=orthogonalEdgeStyle;rounded=0;orthogonalLoop=1;jettySize=auto;html=1;entryX=0.5;entryY=0;entryDx=0;entryDy=0;" parent="1" target="zO2Dq_rvEtgFNvUAzTZn-1" edge="1">
          <mxGeometry relative="1" as="geometry">
            <mxPoint x="605" y="-140" as="sourcePoint" />
            <mxPoint x="605" as="targetPoint" />
          </mxGeometry>
        </mxCell>
        <mxCell id="zO2Dq_rvEtgFNvUAzTZn-2" value="Гость" style="shape=umlActor;verticalLabelPosition=bottom;verticalAlign=top;html=1;outlineConnect=0;" parent="1" vertex="1">
          <mxGeometry x="590" y="-230" width="30" height="60" as="geometry" />
        </mxCell>
        <mxCell id="1n65tFNhc03Zpqp1BoI0-3" style="edgeStyle=orthogonalEdgeStyle;rounded=0;orthogonalLoop=1;jettySize=auto;html=1;entryX=0.798;entryY=0.106;entryDx=0;entryDy=0;entryPerimeter=0;" parent="1" target="zO2Dq_rvEtgFNvUAzTZn-1" edge="1">
          <mxGeometry relative="1" as="geometry">
            <Array as="points">
              <mxPoint x="842" y="-140" />
              <mxPoint x="842" y="-30" />
              <mxPoint x="650" y="-30" />
              <mxPoint x="650" y="97" />
            </Array>
            <mxPoint x="840" y="-140" as="sourcePoint" />
          </mxGeometry>
        </mxCell>
        <mxCell id="zO2Dq_rvEtgFNvUAzTZn-3" value="Автор" style="shape=umlActor;verticalLabelPosition=bottom;verticalAlign=top;html=1;outlineConnect=0;" parent="1" vertex="1">
          <mxGeometry x="827" y="-230" width="30" height="60" as="geometry" />
        </mxCell>
        <mxCell id="1n65tFNhc03Zpqp1BoI0-1" style="edgeStyle=orthogonalEdgeStyle;rounded=0;orthogonalLoop=1;jettySize=auto;html=1;entryX=0.211;entryY=0.089;entryDx=0;entryDy=0;entryPerimeter=0;" parent="1" target="zO2Dq_rvEtgFNvUAzTZn-1" edge="1">
          <mxGeometry relative="1" as="geometry">
            <Array as="points">
              <mxPoint x="345" y="-30" />
              <mxPoint x="560" y="-30" />
              <mxPoint x="560" y="96" />
            </Array>
            <mxPoint x="345" y="-140" as="sourcePoint" />
          </mxGeometry>
        </mxCell>
        <mxCell id="zO2Dq_rvEtgFNvUAzTZn-4" value="Администратор" style="shape=umlActor;verticalLabelPosition=bottom;verticalAlign=top;html=1;outlineConnect=0;" parent="1" vertex="1">
          <mxGeometry x="330" y="-230" width="30" height="60" as="geometry" />
        </mxCell>
        <mxCell id="zO2Dq_rvEtgFNvUAzTZn-8" value="ex" style="endArrow=none;dashed=1;html=1;rounded=0;exitX=0.911;exitY=0.771;exitDx=0;exitDy=0;entryX=0;entryY=0.5;entryDx=0;entryDy=0;exitPerimeter=0;endFill=0;startArrow=classic;startFill=1;" parent="1" source="zO2Dq_rvEtgFNvUAzTZn-1" target="zO2Dq_rvEtgFNvUAzTZn-7" edge="1">
          <mxGeometry width="50" height="50" relative="1" as="geometry">
            <mxPoint x="730" y="210" as="sourcePoint" />
            <mxPoint x="780" y="160" as="targetPoint" />
          </mxGeometry>
        </mxCell>
        <mxCell id="zO2Dq_rvEtgFNvUAzTZn-73" value="" style="endArrow=none;html=1;rounded=0;entryX=0.5;entryY=0;entryDx=0;entryDy=0;exitX=0;exitY=1;exitDx=0;exitDy=0;dashed=1;endFill=0;startArrow=classic;startFill=1;" parent="1" source="zO2Dq_rvEtgFNvUAzTZn-1" target="zO2Dq_rvEtgFNvUAzTZn-75" edge="1">
          <mxGeometry width="50" height="50" relative="1" as="geometry">
            <mxPoint x="120" y="160" as="sourcePoint" />
            <mxPoint x="280" y="395" as="targetPoint" />
          </mxGeometry>
        </mxCell>
        <mxCell id="1n65tFNhc03Zpqp1BoI0-20" value="ех" style="endArrow=classic;dashed=1;html=1;rounded=0;entryX=0.011;entryY=0.682;entryDx=0;entryDy=0;entryPerimeter=0;startArrow=none;startFill=0;endFill=1;" parent="1" source="1n65tFNhc03Zpqp1BoI0-21" target="zO2Dq_rvEtgFNvUAzTZn-1" edge="1">
          <mxGeometry width="50" height="50" relative="1" as="geometry">
            <mxPoint x="450" y="90" as="sourcePoint" />
            <mxPoint x="590" y="300" as="targetPoint" />
          </mxGeometry>
        </mxCell>
        <mxCell id="1n65tFNhc03Zpqp1BoI0-22" value="" style="endArrow=none;html=1;rounded=0;" parent="1" target="1n65tFNhc03Zpqp1BoI0-23" edge="1">
          <mxGeometry width="50" height="50" relative="1" as="geometry">
            <mxPoint x="520" y="130" as="sourcePoint" />
            <mxPoint x="530" y="90" as="targetPoint" />
          </mxGeometry>
        </mxCell>
        <mxCell id="1n65tFNhc03Zpqp1BoI0-24" value="ex" style="endArrow=classic;dashed=1;html=1;rounded=0;exitX=1;exitY=0;exitDx=0;exitDy=0;endFill=1;startArrow=none;startFill=0;" parent="1" source="1n65tFNhc03Zpqp1BoI0-25" target="zO2Dq_rvEtgFNvUAzTZn-1" edge="1">
          <mxGeometry width="50" height="50" relative="1" as="geometry">
            <mxPoint x="510" y="180" as="sourcePoint" />
            <mxPoint x="590" y="290" as="targetPoint" />
          </mxGeometry>
        </mxCell>
        <mxCell id="1n65tFNhc03Zpqp1BoI0-26" value="" style="swimlane;whiteSpace=wrap;html=1;startSize=0;" parent="1" vertex="1">
          <mxGeometry x="90" y="-60" width="1250" height="1210" as="geometry">
            <mxRectangle x="90" y="-120" width="50" height="40" as="alternateBounds" />
          </mxGeometry>
        </mxCell>
        <mxCell id="zO2Dq_rvEtgFNvUAzTZn-7" value="авторизация" style="ellipse;whiteSpace=wrap;html=1;" parent="1n65tFNhc03Zpqp1BoI0-26" vertex="1">
          <mxGeometry x="722.5" y="170" width="110" height="70" as="geometry" />
        </mxCell>
        <mxCell id="zO2Dq_rvEtgFNvUAzTZn-10" value="inc" style="endArrow=none;dashed=1;html=1;rounded=0;entryX=0.967;entryY=0.68;entryDx=0;entryDy=0;entryPerimeter=0;exitX=0;exitY=0.5;exitDx=0;exitDy=0;endFill=0;startArrow=classic;startFill=1;" parent="1n65tFNhc03Zpqp1BoI0-26" source="zO2Dq_rvEtgFNvUAzTZn-13" target="zO2Dq_rvEtgFNvUAzTZn-7" edge="1">
          <mxGeometry width="50" height="50" relative="1" as="geometry">
            <mxPoint x="1075" y="340" as="sourcePoint" />
            <mxPoint x="995" y="460" as="targetPoint" />
          </mxGeometry>
        </mxCell>
        <mxCell id="zO2Dq_rvEtgFNvUAzTZn-11" value="регистрация в системе" style="ellipse;whiteSpace=wrap;html=1;" parent="1n65tFNhc03Zpqp1BoI0-26" vertex="1">
          <mxGeometry x="870" y="40" width="120" height="80" as="geometry" />
        </mxCell>
        <mxCell id="zO2Dq_rvEtgFNvUAzTZn-13" value="вход в аккаунт" style="ellipse;whiteSpace=wrap;html=1;" parent="1n65tFNhc03Zpqp1BoI0-26" vertex="1">
          <mxGeometry x="890" y="230" width="120" height="70" as="geometry" />
        </mxCell>
        <mxCell id="1n65tFNhc03Zpqp1BoI0-9" value="если пользователь автроизован" style="rounded=0;whiteSpace=wrap;html=1;rotation=0;" parent="1n65tFNhc03Zpqp1BoI0-26" vertex="1">
          <mxGeometry x="792.5" y="390" width="90" height="50" as="geometry" />
        </mxCell>
        <mxCell id="zO2Dq_rvEtgFNvUAzTZn-77" value="блокировка пользователя временно" style="ellipse;whiteSpace=wrap;html=1;" parent="1n65tFNhc03Zpqp1BoI0-26" vertex="1">
          <mxGeometry x="50" y="450" width="130" height="80" as="geometry" />
        </mxCell>
        <mxCell id="zO2Dq_rvEtgFNvUAzTZn-79" value="блокировка пользователя перманентно" style="ellipse;whiteSpace=wrap;html=1;" parent="1n65tFNhc03Zpqp1BoI0-26" vertex="1">
          <mxGeometry x="214" y="455" width="110" height="70" as="geometry" />
        </mxCell>
        <mxCell id="zO2Dq_rvEtgFNvUAzTZn-75" value="просмотр списка пользователей в системе" style="ellipse;whiteSpace=wrap;html=1;" parent="1n65tFNhc03Zpqp1BoI0-26" vertex="1">
          <mxGeometry x="110" y="330" width="120" height="80" as="geometry" />
        </mxCell>
        <mxCell id="zO2Dq_rvEtgFNvUAzTZn-76" value="ex" style="endArrow=classic;dashed=1;html=1;rounded=0;exitX=0.5;exitY=0;exitDx=0;exitDy=0;entryX=0.104;entryY=0.837;entryDx=0;entryDy=0;entryPerimeter=0;endFill=1;startArrow=none;startFill=0;" parent="1n65tFNhc03Zpqp1BoI0-26" source="zO2Dq_rvEtgFNvUAzTZn-77" target="zO2Dq_rvEtgFNvUAzTZn-75" edge="1">
          <mxGeometry width="50" height="50" relative="1" as="geometry">
            <mxPoint x="240" y="515" as="sourcePoint" />
            <mxPoint x="250" y="466" as="targetPoint" />
          </mxGeometry>
        </mxCell>
        <mxCell id="zO2Dq_rvEtgFNvUAzTZn-78" value="ex" style="endArrow=classic;dashed=1;html=1;rounded=0;entryX=1;entryY=1;entryDx=0;entryDy=0;endFill=1;startArrow=none;startFill=0;" parent="1n65tFNhc03Zpqp1BoI0-26" source="zO2Dq_rvEtgFNvUAzTZn-79" target="zO2Dq_rvEtgFNvUAzTZn-75" edge="1">
          <mxGeometry width="50" height="50" relative="1" as="geometry">
            <mxPoint x="340" y="495" as="sourcePoint" />
            <mxPoint x="150" y="435" as="targetPoint" />
          </mxGeometry>
        </mxCell>
        <mxCell id="1n65tFNhc03Zpqp1BoI0-21" value="выход из аккаунта" style="ellipse;whiteSpace=wrap;html=1;" parent="1n65tFNhc03Zpqp1BoI0-26" vertex="1">
          <mxGeometry x="120" y="100" width="120" height="60" as="geometry" />
        </mxCell>
        <mxCell id="1n65tFNhc03Zpqp1BoI0-25" value="страница &quot;О нас&quot;" style="ellipse;whiteSpace=wrap;html=1;" parent="1n65tFNhc03Zpqp1BoI0-26" vertex="1">
          <mxGeometry x="340" y="280" width="110" height="90" as="geometry" />
        </mxCell>
        <mxCell id="1n65tFNhc03Zpqp1BoI0-23" value="пользователь авторизирован" style="rounded=0;whiteSpace=wrap;html=1;rotation=0;" parent="1n65tFNhc03Zpqp1BoI0-26" vertex="1">
          <mxGeometry x="350" y="80" width="110" height="60" as="geometry" />
        </mxCell>
        <mxCell id="_A07fXMT1uVPwDbUDfFH-2" value="если есть права администратора" style="rounded=0;whiteSpace=wrap;html=1;rotation=0;" parent="1n65tFNhc03Zpqp1BoI0-26" vertex="1">
          <mxGeometry x="190" y="200" width="100" height="60" as="geometry" />
        </mxCell>
        <mxCell id="zO2Dq_rvEtgFNvUAzTZn-54" value="если есть права администратора" style="rounded=0;whiteSpace=wrap;html=1;rotation=0;" parent="1n65tFNhc03Zpqp1BoI0-26" vertex="1">
          <mxGeometry x="470" y="600" width="100" height="63" as="geometry" />
        </mxCell>
        <mxCell id="_A07fXMT1uVPwDbUDfFH-7" value="&lt;div style=&quot;color: rgb(26, 26, 26); font-family: &amp;quot;YS Text&amp;quot;, &amp;quot;Helvetica Neue&amp;quot;, Helvetica, Arial, sans-serif; text-align: left; background-color: rgb(255, 255, 255);&quot;&gt;&lt;font style=&quot;font-size: 12px;&quot;&gt;name,&amp;nbsp;&lt;/font&gt;surname; patronymic, login, email, password, password_repeat&amp;nbsp;&lt;/div&gt;&lt;div style=&quot;color: rgb(26, 26, 26); font-family: &amp;quot;YS Text&amp;quot;, &amp;quot;Helvetica Neue&amp;quot;, Helvetica, Arial, sans-serif; text-align: left; background-color: rgb(255, 255, 255);&quot;&gt;&lt;font style=&quot;font-size: 12px;&quot;&gt;rules&lt;/font&gt;&lt;/div&gt;" style="rounded=0;whiteSpace=wrap;html=1;rotation=0;" parent="1n65tFNhc03Zpqp1BoI0-26" vertex="1">
          <mxGeometry x="577.5" y="50" width="162.5" height="60" as="geometry" />
        </mxCell>
        <mxCell id="_A07fXMT1uVPwDbUDfFH-9" value="ввод логина и пароля" style="rounded=0;whiteSpace=wrap;html=1;rotation=0;" parent="1n65tFNhc03Zpqp1BoI0-26" vertex="1">
          <mxGeometry x="950" y="145" width="100" height="40" as="geometry" />
        </mxCell>
        <mxCell id="_A07fXMT1uVPwDbUDfFH-10" value="inc" style="endArrow=classic;dashed=1;html=1;rounded=0;entryX=0;entryY=1;entryDx=0;entryDy=0;endFill=1;" parent="1n65tFNhc03Zpqp1BoI0-26" source="zO2Dq_rvEtgFNvUAzTZn-7" target="zO2Dq_rvEtgFNvUAzTZn-11" edge="1">
          <mxGeometry width="50" height="50" relative="1" as="geometry">
            <mxPoint x="610" y="450" as="sourcePoint" />
            <mxPoint x="660" y="400" as="targetPoint" />
          </mxGeometry>
        </mxCell>
        <mxCell id="_A07fXMT1uVPwDbUDfFH-14" value="удаление поста" style="ellipse;whiteSpace=wrap;html=1;" parent="1n65tFNhc03Zpqp1BoI0-26" vertex="1">
          <mxGeometry x="355" y="737.5" width="110" height="85" as="geometry" />
        </mxCell>
        <mxCell id="_A07fXMT1uVPwDbUDfFH-16" value="написание поста" style="ellipse;whiteSpace=wrap;html=1;" parent="1n65tFNhc03Zpqp1BoI0-26" vertex="1">
          <mxGeometry x="820" y="490" width="87" height="60" as="geometry" />
        </mxCell>
        <mxCell id="_A07fXMT1uVPwDbUDfFH-13" value="ex" style="endArrow=none;dashed=1;html=1;rounded=0;startArrow=classic;startFill=1;endFill=0;" parent="1n65tFNhc03Zpqp1BoI0-26" source="_A07fXMT1uVPwDbUDfFH-56" target="_A07fXMT1uVPwDbUDfFH-14" edge="1">
          <mxGeometry x="0.3859" y="-9" width="50" height="50" relative="1" as="geometry">
            <mxPoint x="907" y="1331" as="sourcePoint" />
            <mxPoint x="781.9899999999909" y="1320.9999999999995" as="targetPoint" />
            <Array as="points" />
            <mxPoint as="offset" />
          </mxGeometry>
        </mxCell>
        <mxCell id="_A07fXMT1uVPwDbUDfFH-17" value="редактирование поста" style="ellipse;whiteSpace=wrap;html=1;" parent="1n65tFNhc03Zpqp1BoI0-26" vertex="1">
          <mxGeometry x="1050" y="658.5" width="110" height="70" as="geometry" />
        </mxCell>
        <mxCell id="_A07fXMT1uVPwDbUDfFH-19" value="ответ на комментарии под своим постом" style="ellipse;whiteSpace=wrap;html=1;" parent="1n65tFNhc03Zpqp1BoI0-26" vertex="1">
          <mxGeometry x="1040" y="535" width="140" height="80" as="geometry" />
        </mxCell>
        <mxCell id="_A07fXMT1uVPwDbUDfFH-20" value="ex" style="endArrow=classic;dashed=1;html=1;rounded=0;exitX=0;exitY=0.5;exitDx=0;exitDy=0;endFill=1;startArrow=none;startFill=0;" parent="1n65tFNhc03Zpqp1BoI0-26" source="_A07fXMT1uVPwDbUDfFH-19" target="_A07fXMT1uVPwDbUDfFH-56" edge="1">
          <mxGeometry width="50" height="50" relative="1" as="geometry">
            <mxPoint x="1195.87" y="1436" as="sourcePoint" />
            <mxPoint x="867.620000000005" y="670" as="targetPoint" />
          </mxGeometry>
        </mxCell>
        <mxCell id="zO2Dq_rvEtgFNvUAzTZn-55" value="" style="endArrow=none;html=1;rounded=0;entryX=0.75;entryY=1;entryDx=0;entryDy=0;" parent="1n65tFNhc03Zpqp1BoI0-26" target="zO2Dq_rvEtgFNvUAzTZn-54" edge="1">
          <mxGeometry width="50" height="50" relative="1" as="geometry">
            <mxPoint x="540" y="710" as="sourcePoint" />
            <mxPoint x="1020" y="500" as="targetPoint" />
          </mxGeometry>
        </mxCell>
        <mxCell id="zO2Dq_rvEtgFNvUAzTZn-34" value="переход к ленте постов" style="ellipse;whiteSpace=wrap;html=1;" parent="1n65tFNhc03Zpqp1BoI0-26" vertex="1">
          <mxGeometry x="630" y="400" width="110" height="60" as="geometry" />
        </mxCell>
        <mxCell id="_A07fXMT1uVPwDbUDfFH-28" value="если есть админ права" style="rounded=0;whiteSpace=wrap;html=1;rotation=0;" parent="1n65tFNhc03Zpqp1BoI0-26" vertex="1">
          <mxGeometry x="250" y="880" width="120" height="60" as="geometry" />
        </mxCell>
        <mxCell id="_A07fXMT1uVPwDbUDfFH-33" value="inc" style="endArrow=classic;dashed=1;html=1;rounded=0;exitX=0.358;exitY=1.001;exitDx=0;exitDy=0;exitPerimeter=0;entryX=0.583;entryY=-0.01;entryDx=0;entryDy=0;entryPerimeter=0;endFill=1;" parent="1n65tFNhc03Zpqp1BoI0-26" source="zO2Dq_rvEtgFNvUAzTZn-79" target="_A07fXMT1uVPwDbUDfFH-35" edge="1">
          <mxGeometry width="50" height="50" relative="1" as="geometry">
            <mxPoint x="520" y="670" as="sourcePoint" />
            <mxPoint x="236.10284521012795" y="610" as="targetPoint" />
          </mxGeometry>
        </mxCell>
        <mxCell id="_A07fXMT1uVPwDbUDfFH-84" value="inc" style="edgeStyle=orthogonalEdgeStyle;rounded=0;orthogonalLoop=1;jettySize=auto;html=1;entryX=0;entryY=0.5;entryDx=0;entryDy=0;dashed=1;" parent="1n65tFNhc03Zpqp1BoI0-26" source="_A07fXMT1uVPwDbUDfFH-35" target="_A07fXMT1uVPwDbUDfFH-81" edge="1">
          <mxGeometry relative="1" as="geometry">
            <Array as="points">
              <mxPoint x="100" y="658" />
              <mxPoint x="100" y="1090" />
              <mxPoint x="695" y="1090" />
              <mxPoint x="695" y="1000" />
            </Array>
          </mxGeometry>
        </mxCell>
        <mxCell id="_A07fXMT1uVPwDbUDfFH-35" value="удаление всех постов и комментариев пользователя" style="ellipse;whiteSpace=wrap;html=1;" parent="1n65tFNhc03Zpqp1BoI0-26" vertex="1">
          <mxGeometry x="180" y="615" width="110" height="85" as="geometry" />
        </mxCell>
        <mxCell id="_A07fXMT1uVPwDbUDfFH-48" value="ex" style="edgeStyle=orthogonalEdgeStyle;rounded=0;orthogonalLoop=1;jettySize=auto;html=1;entryX=0.5;entryY=1;entryDx=0;entryDy=0;dashed=1;exitX=0.5;exitY=0;exitDx=0;exitDy=0;" parent="1n65tFNhc03Zpqp1BoI0-26" source="_A07fXMT1uVPwDbUDfFH-49" target="_A07fXMT1uVPwDbUDfFH-35" edge="1">
          <mxGeometry relative="1" as="geometry">
            <Array as="points">
              <mxPoint x="180" y="970" />
              <mxPoint x="180" y="835" />
              <mxPoint x="235" y="835" />
            </Array>
          </mxGeometry>
        </mxCell>
        <mxCell id="_A07fXMT1uVPwDbUDfFH-50" value="ex" style="edgeStyle=orthogonalEdgeStyle;rounded=0;orthogonalLoop=1;jettySize=auto;html=1;entryX=1;entryY=0.5;entryDx=0;entryDy=0;dashed=1;" parent="1n65tFNhc03Zpqp1BoI0-26" source="_A07fXMT1uVPwDbUDfFH-36" target="_A07fXMT1uVPwDbUDfFH-49" edge="1">
          <mxGeometry relative="1" as="geometry" />
        </mxCell>
        <mxCell id="_A07fXMT1uVPwDbUDfFH-36" value="выбор постов на удаление" style="ellipse;whiteSpace=wrap;html=1;" parent="1n65tFNhc03Zpqp1BoI0-26" vertex="1">
          <mxGeometry x="345" y="970" width="120" height="80" as="geometry" />
        </mxCell>
        <mxCell id="_A07fXMT1uVPwDbUDfFH-29" value="inc" style="endArrow=classic;dashed=1;html=1;rounded=0;exitX=0.5;exitY=1;exitDx=0;exitDy=0;startArrow=none;startFill=0;endFill=1;" parent="1n65tFNhc03Zpqp1BoI0-26" source="_A07fXMT1uVPwDbUDfFH-14" target="_A07fXMT1uVPwDbUDfFH-36" edge="1">
          <mxGeometry x="0.1765" y="-5" width="50" height="50" relative="1" as="geometry">
            <mxPoint x="390" y="1033" as="sourcePoint" />
            <mxPoint x="445" y="940" as="targetPoint" />
            <mxPoint as="offset" />
          </mxGeometry>
        </mxCell>
        <mxCell id="_A07fXMT1uVPwDbUDfFH-49" value="выбор всех постов" style="ellipse;whiteSpace=wrap;html=1;" parent="1n65tFNhc03Zpqp1BoI0-26" vertex="1">
          <mxGeometry x="120" y="970" width="120" height="80" as="geometry" />
        </mxCell>
        <mxCell id="_A07fXMT1uVPwDbUDfFH-56" value="страница с детальным описанием поста" style="ellipse;whiteSpace=wrap;html=1;fontSize=10;fontStyle=1" parent="1n65tFNhc03Zpqp1BoI0-26" vertex="1">
          <mxGeometry x="608.75" y="610" width="100" height="70" as="geometry" />
        </mxCell>
        <mxCell id="_A07fXMT1uVPwDbUDfFH-57" value="ех" style="endArrow=none;dashed=1;html=1;rounded=0;exitX=0.569;exitY=1.01;exitDx=0;exitDy=0;exitPerimeter=0;entryX=0.5;entryY=0;entryDx=0;entryDy=0;startArrow=classic;startFill=1;" parent="1n65tFNhc03Zpqp1BoI0-26" source="zO2Dq_rvEtgFNvUAzTZn-34" target="_A07fXMT1uVPwDbUDfFH-56" edge="1">
          <mxGeometry width="50" height="50" relative="1" as="geometry">
            <mxPoint x="760" y="620" as="sourcePoint" />
            <mxPoint x="810" y="570" as="targetPoint" />
          </mxGeometry>
        </mxCell>
        <mxCell id="_A07fXMT1uVPwDbUDfFH-58" value="ех" style="endArrow=none;dashed=1;html=1;rounded=0;endFill=0;startArrow=classic;startFill=1;exitX=1;exitY=1;exitDx=0;exitDy=0;" parent="1n65tFNhc03Zpqp1BoI0-26" source="_A07fXMT1uVPwDbUDfFH-56" target="_A07fXMT1uVPwDbUDfFH-17" edge="1">
          <mxGeometry width="50" height="50" relative="1" as="geometry">
            <mxPoint x="837.0046678911077" y="702.2625941124729" as="sourcePoint" />
            <mxPoint x="968.87" y="715" as="targetPoint" />
          </mxGeometry>
        </mxCell>
        <mxCell id="1n65tFNhc03Zpqp1BoI0-8" value="" style="endArrow=none;html=1;rounded=0;" parent="1n65tFNhc03Zpqp1BoI0-26" target="1n65tFNhc03Zpqp1BoI0-9" edge="1">
          <mxGeometry width="50" height="50" relative="1" as="geometry">
            <mxPoint x="810" y="480" as="sourcePoint" />
            <mxPoint x="420" y="540" as="targetPoint" />
          </mxGeometry>
        </mxCell>
        <mxCell id="_A07fXMT1uVPwDbUDfFH-59" value="ех" style="endArrow=classic;dashed=1;html=1;rounded=0;exitX=0.256;exitY=-0.004;exitDx=0;exitDy=0;exitPerimeter=0;endFill=1;" parent="1n65tFNhc03Zpqp1BoI0-26" source="_A07fXMT1uVPwDbUDfFH-16" target="zO2Dq_rvEtgFNvUAzTZn-34" edge="1">
          <mxGeometry width="50" height="50" relative="1" as="geometry">
            <mxPoint x="640" y="590" as="sourcePoint" />
            <mxPoint x="690" y="540" as="targetPoint" />
          </mxGeometry>
        </mxCell>
        <mxCell id="_A07fXMT1uVPwDbUDfFH-61" value="пользователь авторизирован" style="rounded=0;whiteSpace=wrap;html=1;" parent="1n65tFNhc03Zpqp1BoI0-26" vertex="1">
          <mxGeometry x="950" y="625" width="90" height="38" as="geometry" />
        </mxCell>
        <mxCell id="_A07fXMT1uVPwDbUDfFH-64" value="удаление комментария" style="ellipse;whiteSpace=wrap;html=1;" parent="1n65tFNhc03Zpqp1BoI0-26" vertex="1">
          <mxGeometry x="990" y="822.5" width="120" height="76.25" as="geometry" />
        </mxCell>
        <mxCell id="_A07fXMT1uVPwDbUDfFH-65" value="написание комментария" style="ellipse;whiteSpace=wrap;html=1;" parent="1n65tFNhc03Zpqp1BoI0-26" vertex="1">
          <mxGeometry x="740" y="818.75" width="110" height="80" as="geometry" />
        </mxCell>
        <mxCell id="_A07fXMT1uVPwDbUDfFH-66" value="ех" style="endArrow=classic;dashed=1;html=1;rounded=0;entryX=0.663;entryY=0.996;entryDx=0;entryDy=0;endFill=1;startArrow=none;startFill=0;entryPerimeter=0;" parent="1n65tFNhc03Zpqp1BoI0-26" source="_A07fXMT1uVPwDbUDfFH-65" target="_A07fXMT1uVPwDbUDfFH-56" edge="1">
          <mxGeometry width="50" height="50" relative="1" as="geometry">
            <mxPoint x="327.5" y="892.5" as="sourcePoint" />
            <mxPoint x="667" y="723.5" as="targetPoint" />
            <Array as="points" />
          </mxGeometry>
        </mxCell>
        <mxCell id="_A07fXMT1uVPwDbUDfFH-67" value="ех" style="endArrow=none;dashed=1;html=1;rounded=0;exitX=1;exitY=0.5;exitDx=0;exitDy=0;startArrow=classic;startFill=1;endFill=0;" parent="1n65tFNhc03Zpqp1BoI0-26" source="_A07fXMT1uVPwDbUDfFH-65" target="_A07fXMT1uVPwDbUDfFH-64" edge="1">
          <mxGeometry width="50" height="50" relative="1" as="geometry">
            <mxPoint x="447.5" y="892.5" as="sourcePoint" />
            <mxPoint x="197.5" y="972.5" as="targetPoint" />
          </mxGeometry>
        </mxCell>
        <mxCell id="_A07fXMT1uVPwDbUDfFH-68" value="администратор" style="rounded=0;whiteSpace=wrap;html=1;" parent="1n65tFNhc03Zpqp1BoI0-26" vertex="1">
          <mxGeometry x="860" y="940" width="117.5" height="50" as="geometry" />
        </mxCell>
        <mxCell id="_A07fXMT1uVPwDbUDfFH-69" value="если пользователь - автор" style="rounded=0;whiteSpace=wrap;html=1;" parent="1n65tFNhc03Zpqp1BoI0-26" vertex="1">
          <mxGeometry x="860" y="728.5" width="100" height="45" as="geometry" />
        </mxCell>
        <mxCell id="_A07fXMT1uVPwDbUDfFH-72" value="" style="endArrow=none;html=1;rounded=0;" parent="1n65tFNhc03Zpqp1BoI0-26" target="_A07fXMT1uVPwDbUDfFH-68" edge="1">
          <mxGeometry width="50" height="50" relative="1" as="geometry">
            <mxPoint x="920" y="870" as="sourcePoint" />
            <mxPoint x="577.5" y="722.5" as="targetPoint" />
          </mxGeometry>
        </mxCell>
        <mxCell id="_A07fXMT1uVPwDbUDfFH-73" value="" style="endArrow=none;html=1;rounded=0;" parent="1n65tFNhc03Zpqp1BoI0-26" target="_A07fXMT1uVPwDbUDfFH-69" edge="1">
          <mxGeometry width="50" height="50" relative="1" as="geometry">
            <mxPoint x="730" y="770" as="sourcePoint" />
            <mxPoint x="300" y="672.5" as="targetPoint" />
          </mxGeometry>
        </mxCell>
        <mxCell id="_A07fXMT1uVPwDbUDfFH-62" value="" style="endArrow=none;html=1;rounded=0;entryX=0.325;entryY=1.034;entryDx=0;entryDy=0;entryPerimeter=0;" parent="1n65tFNhc03Zpqp1BoI0-26" target="_A07fXMT1uVPwDbUDfFH-61" edge="1">
          <mxGeometry width="50" height="50" relative="1" as="geometry">
            <mxPoint x="910" y="680" as="sourcePoint" />
            <mxPoint x="848.87" y="655" as="targetPoint" />
          </mxGeometry>
        </mxCell>
        <mxCell id="_A07fXMT1uVPwDbUDfFH-79" value="inc" style="endArrow=none;dashed=1;html=1;rounded=0;entryX=0.633;entryY=1.001;entryDx=0;entryDy=0;entryPerimeter=0;exitX=0;exitY=0;exitDx=0;exitDy=0;startArrow=classic;startFill=1;" parent="1n65tFNhc03Zpqp1BoI0-26" source="_A07fXMT1uVPwDbUDfFH-81" target="_A07fXMT1uVPwDbUDfFH-64" edge="1">
          <mxGeometry width="50" height="50" relative="1" as="geometry">
            <mxPoint x="1109.6799999999998" y="926.0999999999999" as="sourcePoint" />
            <mxPoint x="740" y="810" as="targetPoint" />
          </mxGeometry>
        </mxCell>
        <mxCell id="_A07fXMT1uVPwDbUDfFH-81" value="удаление ветки комментариев" style="ellipse;whiteSpace=wrap;html=1;" parent="1n65tFNhc03Zpqp1BoI0-26" vertex="1">
          <mxGeometry x="1100" y="960" width="120" height="80" as="geometry" />
        </mxCell>
        <mxCell id="_A07fXMT1uVPwDbUDfFH-83" value="если пост удаляется" style="rounded=0;whiteSpace=wrap;html=1;" parent="1n65tFNhc03Zpqp1BoI0-26" vertex="1">
          <mxGeometry x="1120" y="880" width="120" height="60" as="geometry" />
        </mxCell>
        <mxCell id="t0nfNjARrmESBvjvw31_-1" value="" style="endArrow=none;html=1;rounded=0;" edge="1" parent="1n65tFNhc03Zpqp1BoI0-26" target="t0nfNjARrmESBvjvw31_-2">
          <mxGeometry width="50" height="50" relative="1" as="geometry">
            <mxPoint x="540" y="710" as="sourcePoint" />
            <mxPoint x="540" y="710" as="targetPoint" />
          </mxGeometry>
        </mxCell>
        <mxCell id="t0nfNjARrmESBvjvw31_-2" value="на посте нет комментариев" style="rounded=0;whiteSpace=wrap;html=1;" vertex="1" parent="1n65tFNhc03Zpqp1BoI0-26">
          <mxGeometry x="520" y="773.5" width="120" height="60" as="geometry" />
        </mxCell>
        <mxCell id="_A07fXMT1uVPwDbUDfFH-1" value="" style="endArrow=none;html=1;rounded=0;" parent="1" target="_A07fXMT1uVPwDbUDfFH-2" edge="1">
          <mxGeometry width="50" height="50" relative="1" as="geometry">
            <mxPoint x="420" y="210" as="sourcePoint" />
            <mxPoint x="450" y="170" as="targetPoint" />
          </mxGeometry>
        </mxCell>
        <mxCell id="zO2Dq_rvEtgFNvUAzTZn-9" value="ex" style="endArrow=block;dashed=1;html=1;rounded=0;entryX=1;entryY=0.5;entryDx=0;entryDy=0;exitX=0;exitY=0.5;exitDx=0;exitDy=0;startArrow=none;startFill=0;endFill=1;" parent="1" source="zO2Dq_rvEtgFNvUAzTZn-11" target="zO2Dq_rvEtgFNvUAzTZn-1" edge="1">
          <mxGeometry width="50" height="50" relative="1" as="geometry">
            <mxPoint x="1194.99" y="150" as="sourcePoint" />
            <mxPoint x="1125" y="200" as="targetPoint" />
          </mxGeometry>
        </mxCell>
        <mxCell id="_A07fXMT1uVPwDbUDfFH-6" value="" style="endArrow=none;html=1;rounded=0;" parent="1" target="_A07fXMT1uVPwDbUDfFH-7" edge="1">
          <mxGeometry width="50" height="50" relative="1" as="geometry">
            <mxPoint x="750" y="90" as="sourcePoint" />
            <mxPoint x="820" y="60" as="targetPoint" />
          </mxGeometry>
        </mxCell>
        <mxCell id="_A07fXMT1uVPwDbUDfFH-8" value="" style="endArrow=none;html=1;rounded=0;" parent="1" target="_A07fXMT1uVPwDbUDfFH-9" edge="1">
          <mxGeometry width="50" height="50" relative="1" as="geometry">
            <mxPoint x="940" y="170" as="sourcePoint" />
            <mxPoint x="980" y="160" as="targetPoint" />
          </mxGeometry>
        </mxCell>
        <mxCell id="_A07fXMT1uVPwDbUDfFH-30" value="" style="endArrow=none;html=1;rounded=0;exitX=1;exitY=0.5;exitDx=0;exitDy=0;" parent="1" edge="1">
          <mxGeometry width="50" height="50" relative="1" as="geometry">
            <mxPoint x="460" y="850.0000000000005" as="sourcePoint" />
            <mxPoint x="500" y="830" as="targetPoint" />
          </mxGeometry>
        </mxCell>
        <mxCell id="_A07fXMT1uVPwDbUDfFH-60" value="" style="endArrow=none;html=1;rounded=0;exitX=0.25;exitY=0;exitDx=0;exitDy=0;" parent="1" source="_A07fXMT1uVPwDbUDfFH-61" edge="1">
          <mxGeometry width="50" height="50" relative="1" as="geometry">
            <mxPoint x="1028.87" y="795" as="sourcePoint" />
            <mxPoint x="1000" y="540" as="targetPoint" />
          </mxGeometry>
        </mxCell>
        <mxCell id="_A07fXMT1uVPwDbUDfFH-63" value="ех" style="endArrow=classic;dashed=1;html=1;rounded=0;exitX=0.192;exitY=0.067;exitDx=0;exitDy=0;exitPerimeter=0;entryX=0.431;entryY=0.995;entryDx=0;entryDy=0;entryPerimeter=0;endFill=1;" parent="1" source="_A07fXMT1uVPwDbUDfFH-56" target="zO2Dq_rvEtgFNvUAzTZn-1" edge="1">
          <mxGeometry width="50" height="50" relative="1" as="geometry">
            <mxPoint x="730" y="420" as="sourcePoint" />
            <mxPoint x="780" y="370" as="targetPoint" />
          </mxGeometry>
        </mxCell>
        <mxCell id="_A07fXMT1uVPwDbUDfFH-82" value="" style="endArrow=none;html=1;rounded=0;" parent="1" target="_A07fXMT1uVPwDbUDfFH-83" edge="1">
          <mxGeometry width="50" height="50" relative="1" as="geometry">
            <mxPoint x="1180" y="870" as="sourcePoint" />
            <mxPoint x="830" y="740" as="targetPoint" />
          </mxGeometry>
        </mxCell>
      </root>
    </mxGraphModel>
  </diagram>
</mxfile>
